#!OML:ASF H:\Male1\Project 1\Capture day 1\Session 1\Male1.ASF
:FULLY-SPECIFIED
:DEGREES
154
root 9.91446 15.2116 -0.515382 184.727 -93.7775 -184.79
lowerback 9.56968 -0.0301217 1.1085
upperback 2.96004 -0.0149885 0.240948
thorax -2.29161 -0.0450138 -0.371323
lowerneck -13.0103 2.47033 5.77829
upperneck 2.5531 2.77489 -7.42773
head 3.04703 1.08872 -3.02719
rclavicle 3.05631e-015 -5.56597e-015
rhumerus -41.2896 8.80232 -84.438
rradius 49.1342
rwrist -24.9509
rhand -30.0016 -0.792207
rfingers 7.12502
rthumb -3.31903 -30.7461
lclavicle 3.05631e-015 -5.56597e-015
lhumerus -52.1031 -3.71107 89.0172
lradius 33.8175
lwrist 10.2947
lhand -25.9249 6.75525
lfingers 7.12502
lthumb 0.618291 36.7341
rfemur -13.8525 18.2243 23.1885
rtibia 34.7869
rfoot -27.1584 -22.6856
rtoes -27.2409
lfemur -11.4963 -18.5018 -20.9718
ltibia 35.4741
lfoot -25.9326 14.2594
ltoes -15.1417
155
root 9.92645 15.2085 -0.503197 184.867 -93.1937 -184.655
lowerback 9.98261 -0.0829369 0.949411
upperback 3.10036 -0.105808 0.195964
thorax -2.37483 -0.0936125 -0.317324
lowerneck -12.8052 2.78727 5.98288
upperneck 1.88469 3.14595 -7.62239
head 2.84482 1.27136 -3.09783
rclavicle -4.4975e-015 4.47266e-015
rhumerus -41.07 9.81391 -84.6936
rradius 49.716
rwrist -25.1779
rhand -29.948 -1.44092
rfingers 7.12502
rthumb -3.26723 -31.3956
lclavicle -4.4975e-015 4.47266e-015
lhumerus -52.8397 -4.7711 89.8715
lradius 34.8258
lwrist 10.8414
lhand -25.8451 7.74753
lfingers 7.12502
lthumb 0.695307 37.7261
rfemur -14.3902 18.3069 22.9666
rtibia 35.0272
rfoot -26.8928 -22.5898
rtoes -27.6393
lfemur -11.8113 -18.2409 -20.9916
ltibia 35.574
lfoot -26.0646 14.3794
ltoes -14.5278
156
root 9.94702 15.2041 -0.489326 185.935 -92.6668 -185.43
lowerback 10.582 -0.15602 0.836892
upperback 3.23836 -0.21974 0.158319
thorax -2.56226 -0.154886 -0.277527
lowerneck -12.6252 3.00106 6.13253
upperneck 1.33463 3.39026 -7.77134
head 2.67336 1.39201 -3.15472
rclavicle -4.96962e-015 -1.59028e-015
rhumerus -40.8396 10.7999 -84.899
rradius 50.3246
rwrist -25.4549
rhand -29.9747 -2.1052
rfingers 7.12502
rthumb -3.29304 -32.0595
lclavicle -4.96962e-015 -1.59028e-015
lhumerus -53.6833 -5.69935 90.6514
lradius 36.0428
lwrist 11.3411
lhand -25.5898 8.89409
lfingers 7.12502
lthumb 0.941883 38.8718
rfemur -15.1194 17.8827 22.7298
rtibia 35.4539
rfoot -26.3469 -22.2286
rtoes -28.6085
lfemur -12.3378 -17.9432 -20.9356
ltibia 35.8798
lfoot -26.2196 14.459
ltoes -14.5719
157
root 9.97621 15.1988 -0.476924 186.268 -92.0497 -185.4
lowerback 11.2107 -0.121782 0.623081
upperback 3.42762 -0.208622 0.0758663
thorax -2.7099 -0.154734 -0.242115
lowerneck -12.5702 3.41546 6.66225
upperneck 0.541551 3.83538 -8.2436
head 2.47957 1.59869 -3.36071
rclavicle 2.25496e-015 -2.38542e-015
rhumerus -40.5515 11.4471 -85.0233
rradius 50.9749
rwrist -25.6803
rhand -30.1125 -2.37737
rfingers 7.12502
rthumb -3.42608 -32.3296
lclavicle 2.25496e-015 -2.38542e-015
lhumerus -54.3919 -6.58808 91.3018
lradius 37.2211
lwrist 11.6724
lhand -25.2564 9.65219
lfingers 7.12502
lthumb 1.26397 39.6282
rfemur -16.1312 17.2184 22.3932
rtibia 36.0885
rfoot -25.7779 -21.4389
rtoes -29.578
lfemur -13.1308 -17.6027 -20.8914
ltibia 36.4385
lfoot -26.4111 14.5773
ltoes -14.7646
158
root 10.0158 15.1828 -0.465568 186.236 -91.3572 -185.065
lowerback 11.9471 -0.0413627 0.251725
upperback 3.75368 -0.164185 0.0402643
thorax -2.772 -0.141344 -0.074046
lowerneck -11.8969 3.40324 6.68505
upperneck -0.786857 3.77276 -8.00643
head 2.19713 1.60301 -3.66337
rclavicle 4.00209e-015 -2.59352e-015
rhumerus -40.0147 12.1267 -85.0176
rradius 51.6155
rwrist -25.8428
rhand -30.2759 -2.40763
rfingers 7.12502
rthumb -3.58387 -32.3572
lclavicle 4.00209e-015 -2.59352e-015
lhumerus -54.7069 -7.06508 91.7298
lradius 38.1242
lwrist 11.8773
lhand -24.7731 9.81038
lfingers 7.12502
lthumb 1.73072 39.7831
rfemur -17.3231 16.5141 22.0471
rtibia 36.9464
rfoot -25.2402 -20.4038
rtoes -30.3427
lfemur -14.0424 -17.2674 -20.8781
ltibia 37.2877
lfoot -26.7097 14.607
ltoes -14.3928
159
root 10.0676 15.1552 -0.458913 200.298 -90.7137 -198.732
lowerback 12.6806 -0.0469619 0.286523
upperback 4.1521 -0.201085 -0.183711
thorax -2.75656 -0.169879 -0.319608
lowerneck -11.5853 3.86138 7.12232
upperneck -2.09856 4.26136 -8.24828
head 1.76166 1.83899 -3.79838
rclavicle 1.63997e-015 7.55382e-015
rhumerus -39.2722 12.7798 -85.3652
rradius 52.2323
rwrist -25.9845
rhand -30.4937 -2.44354
rfingers 7.12502
rthumb -3.79425 -32.3895
lclavicle 1.63997e-015 7.55382e-015
lhumerus -54.7247 -7.26604 91.5015
lradius 38.8441
lwrist 12.136
lhand -24.2659 9.33619
lfingers 7.12502
lthumb 2.22056 39.3044
rfemur -18.8447 15.869 21.9119
rtibia 38.0496
rfoot -24.6339 -19.4521
rtoes -31.1223
lfemur -15.2926 -16.7581 -20.587
ltibia 38.44
lfoot -26.9924 14.4002
ltoes -13.9268
160
root 10.1313 15.1161 -0.458035 256.254 -90.344 -254.305
lowerback 13.8788 0.00485252 -0.0895552
upperback 4.44496 -0.209391 -0.159368
thorax -3.09796 -0.187143 -0.0773136
lowerneck -11.1934 4.02654 7.24594
upperneck -3.21711 4.41425 -8.50353
head 1.34423 1.91005 -3.90482
rclavicle 1.49089e-015 -1.98785e-016
rhumerus -38.5789 13.6924 -85.4037
rradius 52.845
rwrist -26.3176
rhand -30.7855 -2.47547
rfingers 7.12502
rthumb -4.07603 -32.4162
lclavicle 1.49089e-015 -1.98785e-016
lhumerus -54.64 -7.0419 91.4565
lradius 39.2642
lwrist 12.401
lhand -24.1535 8.87417
lfingers 7.12502
lthumb 2.32908 38.8412
rfemur -20.5028 15.3422 21.8403
rtibia 39.4229
rfoot -24.2726 -18.7758
rtoes -32.0094
lfemur -16.808 -16.1676 -20.2597
ltibia 39.916
lfoot -27.1734 14.0992
ltoes -13.5438
161
root 10.2025 15.0655 -0.449913 263.011 -90.318 -260.714
lowerback 15.2829 -0.0645689 -0.487478
upperback 4.75713 -0.393296 -0.0881233
thorax -3.52264 -0.292615 0.259915
lowerneck -10.8288 4.37615 7.60844
upperneck -4.53465 4.76504 -9.12793
head 0.908491 2.06858 -4.18555
rclavicle 3.57812e-015 3.97569e-016
rhumerus -37.7922 14.5217 -85.188
rradius 53.4493
rwrist -26.7092
rhand -30.9761 -2.45748
rfingers 7.12502
rthumb -4.26004 -32.3946
lclavicle 3.57812e-015 3.97569e-016
lhumerus -54.3355 -6.74657 91.5442
lradius 39.4609
lwrist 12.9137
lhand -24.3762 8.88953
lfingers 7.12502
lthumb 2.11402 38.8588
rfemur -22.1252 14.262 21.641
rtibia 41.0527
rfoot -24.3377 -18.0679
rtoes -32.8394
lfemur -18.5334 -15.9736 -20.1214
ltibia 41.7049
lfoot -27.2231 13.818
ltoes -13.5487
162
root 10.2763 14.9989 -0.44447 268.012 -90.3329 -265.447
lowerback 16.758 -0.074814 -0.826211
upperback 5.13514 -0.510059 -0.0537204
thorax -3.90672 -0.367287 0.519878
lowerneck -10.3431 4.45422 7.61024
upperneck -5.7863 4.80064 -9.29104
head 0.418617 2.08687 -4.25562
rclavicle 2.73329e-015 4.77083e-015
rhumerus -36.9722 15.0193 -84.9199
rradius 54.1932
rwrist -27.1043
rhand -31.0344 -2.37472
rfingers 7.12502
rthumb -4.31639 -32.3107
lclavicle 2.73329e-015 4.77083e-015
lhumerus -53.9552 -6.53912 91.5728
lradius 39.7018
lwrist 13.5616
lhand -24.6331 9.38629
lfingers 7.12502
lthumb 1.86593 39.3579
rfemur -23.8439 13.2967 21.5374
rtibia 42.9735
rfoot -24.4525 -17.3663
rtoes -33.2582
lfemur -20.3701 -15.7908 -19.9485
ltibia 43.755
lfoot -27.223 13.7714
ltoes -14.1824
163
root 10.3524 14.9173 -0.436727 268.622 -90.541 -265.758
lowerback 18.0916 -0.0694058 -0.857406
upperback 5.6052 -0.567661 -0.0383703
thorax -4.11147 -0.416728 0.57585
lowerneck -10.1594 4.62757 7.94198
upperneck -6.69717 4.93079 -9.65829
head 0.121301 2.13868 -4.45901
rclavicle -7.05686e-015 -3.06128e-014
rhumerus -35.9771 15.1954 -84.6526
rradius 54.9275
rwrist -27.4524
rhand -31.0968 -2.23974
rfingers 7.12502
rthumb -4.37665 -32.1745
lclavicle -7.05686e-015 -3.06128e-014
lhumerus -53.4097 -6.53926 91.619
lradius 39.936
lwrist 14.1119
lhand -25.1422 10.2481
lfingers 7.12502
lthumb 1.37421 40.2234
rfemur -25.8125 12.3008 21.6575
rtibia 45.1874
rfoot -24.5169 -16.6628
rtoes -33.7149
lfemur -22.3835 -15.586 -19.5617
ltibia 46.0245
lfoot -27.3136 13.7926
ltoes -14.488
164
root 10.4288 14.8165 -0.42975 259.228 -90.7299 -256.054
lowerback 19.5454 -0.0400508 -0.999442
upperback 6.00951 -0.61271 0.0687049
thorax -4.43731 -0.459748 0.793481
lowerneck -10.7326 5.038 8.04156
upperneck -6.67632 5.40056 -10.1468
head 0.273205 2.35303 -4.17397
rclavicle -6.75868e-015 8.15017e-015
rhumerus -35.1282 15.3663 -84.2517
rradius 55.8244
rwrist -27.5842
rhand -31.2896 -2.17725
rfingers 7.12502
rthumb -4.56278 -32.1081
lclavicle -6.75868e-015 8.15017e-015
lhumerus -52.8589 -6.59694 91.9305
lradius 40.0858
lwrist 14.468
lhand -25.9024 10.7725
lfingers 7.12502
lthumb 0.640013 40.7513
rfemur -27.9232 11.3424 21.7695
rtibia 47.6484
rfoot -24.6135 -16.1266
rtoes -34.3542
lfemur -24.4485 -15.4003 -19.2161
ltibia 48.4602
lfoot -27.5843 13.6994
ltoes -14.4264
165
root 10.4984 14.7006 -0.424488 231.448 -90.8116 -227.606
lowerback 20.2665 -0.0980393 -1.09687
upperback 6.47591 -0.765104 -0.0636555
thorax -4.30862 -0.554974 0.748446
lowerneck -9.9115 5.17604 8.63506
upperneck -8.31759 5.42781 -10.9055
head -0.286227 2.36692 -4.54338
rclavicle -6.36111e-015 -5.56597e-015
rhumerus -33.9844 15.3262 -84.0259
rradius 56.5953
rwrist -27.5201
rhand -31.6389 -2.38548
rfingers 7.12502
rthumb -4.90003 -32.3088
lclavicle -6.36111e-015 -5.56597e-015
lhumerus -52.1134 -7.05949 92.0998
lradius 40.2397
lwrist 14.7621
lhand -26.4152 10.8374
lfingers 7.12502
lthumb 0.144712 40.8171
rfemur -30.4694 10.3764 21.5231
rtibia 50.2883
rfoot -25.0123 -15.6463
rtoes -34.1751
lfemur -26.9807 -15.4354 -19.0838
ltibia 51.0399
lfoot -27.8494 13.6248
ltoes -14.6617
